<svg xmlns="http://www.w3.org/2000/svg" viewBox="0 0 100 100"><rect x="0" y="0" width="100" height="100" rx="20" fill="#002FA7"/><rect x="15.00" y="15.00" width="8.33" height="8.33" rx="1.3" fill="#ffffff"/><rect x="27.33" y="15.00" width="8.33" height="8.33" rx="1.3" fill="#ffffff"/><rect x="15.00" y="27.33" width="8.33" height="8.33" rx="1.3" fill="#ffffff"/><rect x="27.33" y="27.33" width="8.33" height="8.33" rx="1.3" fill="#ffffff"/><rect x="39.67" y="39.67" width="8.33" height="8.33" rx="1.3" fill="#ffffff"/><rect x="52.00" y="39.67" width="8.33" height="8.33" rx="1.3" fill="#ffffff"/><rect x="39.67" y="52.00" width="8.33" height="8.33" rx="1.3" fill="#ffffff"/><rect x="52.00" y="52.00" width="8.33" height="8.33" rx="1.3" fill="#ffffff"/><rect x="64.33" y="64.33" width="8.33" height="8.33" rx="1.3" fill="#ffffff"/><rect x="76.67" y="64.33" width="8.33" height="8.33" rx="1.3" fill="#ffffff"/><rect x="64.33" y="76.67" width="8.33" height="8.33" rx="1.3" fill="#ffffff"/><rect x="76.67" y="76.67" width="8.33" height="8.33" rx="1.3" fill="#ffffff"/></svg>
